<svg xmlns="http://www.w3.org/2000/svg" viewBox="0 0 154.21 175"><defs><style>.a{fill:#7f7f7f;}</style></defs><title>empty</title><path class="a" d="M76.52,80.47A11.51,11.51,0,1,1,87.91,69,11.46,11.46,0,0,1,76.52,80.47Zm25.06-50.65c-40.26,0-72.91,33-72.91,73.68s32.65,73.68,72.91,73.68a72.28,72.28,0,0,0,50.12-20.12l-53-53.56L151.7,50A72.26,72.26,0,0,0,101.58,29.82Zm66.53,23.09L118.06,103.5l49.54,50.08a4.63,4.63,0,0,1,.28,6.2l-.29.35a86.12,86.12,0,0,1-66,30.87C53.76,191,15,151.83,15,103.5S53.76,16,101.58,16a86,86,0,0,1,66.77,31.81A3.82,3.82,0,0,1,168.11,52.91Z" transform="translate(-15 -16)"/></svg>