<?xml version="1.0" standalone="no"?><!DOCTYPE svg PUBLIC "-//W3C//DTD SVG 1.1//EN" "http://www.w3.org/Graphics/SVG/1.1/DTD/svg11.dtd"><svg t="1593408763876" class="icon" viewBox="0 0 1024 1024" version="1.1" xmlns="http://www.w3.org/2000/svg" p-id="2925" xmlns:xlink="http://www.w3.org/1999/xlink" width="200" height="200"><defs><style type="text/css"></style></defs><path d="M704 960H320c-52.9 0-96-43.1-96-96V256h576v608c0 52.9-43.1 96-96 96zM288 320v544c0 17.6 14.4 32 32 32h384c17.6 0 32-14.4 32-32V320H288z" fill="#333333" p-id="2926"></path><path d="M896 320H128c-17.7 0-32-14.3-32-32s14.3-32 32-32h768c17.7 0 32 14.3 32 32s-14.3 32-32 32zM384 756c-17.7 0-32-14.3-32-32V492c0-17.7 14.3-32 32-32s32 14.3 32 32v232c0 17.7-14.3 32-32 32zM512 756c-17.7 0-32-14.3-32-32V492c0-17.7 14.3-32 32-32s32 14.3 32 32v232c0 17.7-14.3 32-32 32zM640 756c-17.7 0-32-14.3-32-32V492c0-17.7 14.3-32 32-32s32 14.3 32 32v232c0 17.7-14.3 32-32 32z" fill="#333333" p-id="2927"></path><path d="M720 320H304V160c0-52.9 43.1-96 96-96h224c52.9 0 96 43.1 96 96v160z m-352-64h288v-96c0-17.6-14.4-32-32-32H400c-17.6 0-32 14.4-32 32v96z" fill="#333333" p-id="2928"></path></svg>